<svg xmlns="http://www.w3.org/2000/svg" xmlns:xlink="http://www.w3.org/1999/xlink" width="150" zoomAndPan="magnify" viewBox="0 0 112.5 44.999999" height="60" preserveAspectRatio="xMidYMid meet" version="1.0"><defs><g/><clipPath id="6ed03d318a"><path d="M 69.007812 12.488281 L 110.824219 12.488281 L 110.824219 37.875 L 69.007812 37.875 Z M 69.007812 12.488281 " clip-rule="nonzero"/></clipPath><clipPath id="28eceaa81d"><path d="M 1.171875 12.046875 L 27.304688 12.046875 L 27.304688 38 L 1.171875 38 Z M 1.171875 12.046875 " clip-rule="nonzero"/></clipPath></defs><g fill="#5acdff" fill-opacity="1"><g transform="translate(3.970557, 37.949044)"><g/></g></g><g fill="#5acdff" fill-opacity="1"><g transform="translate(16.770908, 37.949044)"><g/></g></g><g fill="#5271ff" fill-opacity="1"><g transform="translate(29.577547, 37.949044)"><g><path d="M 10.78125 -9.4375 L 10.78125 -5.234375 C 10.78125 -4.304688 10.71875 -3.59375 10.59375 -3.09375 C 10.476562 -2.59375 10.273438 -2.117188 9.984375 -1.671875 C 9.585938 -1.085938 9.070312 -0.628906 8.4375 -0.296875 C 7.800781 0.0351562 7.128906 0.203125 6.421875 0.203125 C 5.628906 0.203125 4.894531 0.0195312 4.21875 -0.34375 C 3.539062 -0.71875 3.019531 -1.238281 2.65625 -1.90625 C 2.414062 -2.351562 2.253906 -2.804688 2.171875 -3.265625 C 2.097656 -3.734375 2.0625 -4.390625 2.0625 -5.234375 L 2.0625 -21.203125 C 2.0625 -22.128906 2.113281 -22.84375 2.21875 -23.34375 C 2.320312 -23.84375 2.535156 -24.320312 2.859375 -24.78125 C 3.222656 -25.351562 3.722656 -25.804688 4.359375 -26.140625 C 4.992188 -26.472656 5.679688 -26.640625 6.421875 -26.640625 C 7.191406 -26.640625 7.910156 -26.445312 8.578125 -26.0625 C 9.253906 -25.675781 9.773438 -25.15625 10.140625 -24.5 C 10.378906 -24.070312 10.546875 -23.625 10.640625 -23.15625 C 10.734375 -22.695312 10.78125 -22.046875 10.78125 -21.203125 L 10.78125 -17.359375 L 15.453125 -24.375 C 16.429688 -25.882812 17.675781 -26.640625 19.1875 -26.640625 C 19.789062 -26.640625 20.363281 -26.519531 20.90625 -26.28125 C 21.445312 -26.039062 21.914062 -25.722656 22.3125 -25.328125 C 22.707031 -24.929688 23.023438 -24.460938 23.265625 -23.921875 C 23.503906 -23.378906 23.625 -22.816406 23.625 -22.234375 C 23.625 -21.390625 23.359375 -20.585938 22.828125 -19.828125 L 18.515625 -13.515625 L 23.59375 -7.0625 C 24.007812 -6.53125 24.300781 -6.050781 24.46875 -5.625 C 24.644531 -5.207031 24.734375 -4.757812 24.734375 -4.28125 C 24.734375 -3.675781 24.613281 -3.101562 24.375 -2.5625 C 24.132812 -2.019531 23.816406 -1.539062 23.421875 -1.125 C 23.023438 -0.71875 22.5625 -0.394531 22.03125 -0.15625 C 21.507812 0.0820312 20.941406 0.203125 20.328125 0.203125 C 19.648438 0.203125 19.039062 0.0546875 18.5 -0.234375 C 17.957031 -0.523438 17.421875 -1.003906 16.890625 -1.671875 Z M 16.890625 -21.328125 C 17.046875 -21.585938 17.148438 -21.773438 17.203125 -21.890625 C 17.253906 -22.015625 17.28125 -22.128906 17.28125 -22.234375 C 17.28125 -22.628906 17.070312 -22.828125 16.65625 -22.828125 C 16.488281 -22.828125 16.34375 -22.78125 16.21875 -22.6875 C 16.101562 -22.601562 15.957031 -22.414062 15.78125 -22.125 L 11.21875 -15.34375 C 11.03125 -15.070312 10.910156 -14.882812 10.859375 -14.78125 C 10.804688 -14.675781 10.78125 -14.570312 10.78125 -14.46875 C 10.78125 -14.28125 10.851562 -14.125 11 -14 C 11.144531 -13.882812 11.320312 -13.828125 11.53125 -13.828125 C 11.664062 -13.828125 11.78125 -13.875 11.875 -13.96875 C 11.96875 -14.0625 12.117188 -14.253906 12.328125 -14.546875 Z M 17.640625 -3.015625 C 18.191406 -2.273438 18.632812 -1.789062 18.96875 -1.5625 C 19.300781 -1.34375 19.703125 -1.234375 20.171875 -1.234375 C 20.835938 -1.234375 21.171875 -1.492188 21.171875 -2.015625 C 21.171875 -2.285156 21.097656 -2.46875 20.953125 -2.5625 C 20.804688 -2.65625 20.535156 -2.710938 20.140625 -2.734375 C 19.953125 -2.765625 19.8125 -2.796875 19.71875 -2.828125 C 19.625 -2.867188 19.515625 -2.957031 19.390625 -3.09375 C 19.203125 -3.300781 18.972656 -3.554688 18.703125 -3.859375 C 18.441406 -4.171875 18.234375 -4.429688 18.078125 -4.640625 L 13.5625 -10.546875 C 13.1875 -11.023438 12.878906 -11.265625 12.640625 -11.265625 C 12.484375 -11.265625 12.335938 -11.195312 12.203125 -11.0625 C 12.078125 -10.925781 12.015625 -10.765625 12.015625 -10.578125 C 12.015625 -10.398438 12.160156 -10.125 12.453125 -9.75 Z M 4.875 -24.5 C 4.664062 -24.5 4.476562 -24.414062 4.3125 -24.25 C 4.15625 -24.09375 4.078125 -23.910156 4.078125 -23.703125 C 4.078125 -23.492188 4.15625 -23.304688 4.3125 -23.140625 C 4.476562 -22.984375 4.664062 -22.90625 4.875 -22.90625 C 5.082031 -22.90625 5.265625 -22.984375 5.421875 -23.140625 C 5.585938 -23.304688 5.671875 -23.492188 5.671875 -23.703125 C 5.671875 -23.910156 5.585938 -24.09375 5.421875 -24.25 C 5.265625 -24.414062 5.082031 -24.5 4.875 -24.5 Z M 6.21875 -2.703125 C 5.695312 -2.804688 5.347656 -3.03125 5.171875 -3.375 C 5.003906 -3.71875 4.921875 -4.390625 4.921875 -5.390625 L 4.921875 -21.203125 C 4.921875 -21.703125 4.878906 -22.03125 4.796875 -22.1875 C 4.710938 -22.351562 4.523438 -22.4375 4.234375 -22.4375 C 3.953125 -22.4375 3.769531 -22.351562 3.6875 -22.1875 C 3.601562 -22.03125 3.5625 -21.703125 3.5625 -21.203125 L 3.5625 -5.15625 C 3.5625 -4.382812 3.585938 -3.8125 3.640625 -3.4375 C 3.691406 -3.070312 3.8125 -2.742188 4 -2.453125 C 4.238281 -2.085938 4.550781 -1.804688 4.9375 -1.609375 C 5.320312 -1.410156 5.722656 -1.3125 6.140625 -1.3125 C 6.753906 -1.3125 7.0625 -1.5625 7.0625 -2.0625 C 7.0625 -2.40625 6.898438 -2.601562 6.578125 -2.65625 Z M 18.1875 -24.453125 C 17.976562 -24.453125 17.796875 -24.363281 17.640625 -24.1875 C 17.484375 -24.019531 17.40625 -23.832031 17.40625 -23.625 C 17.40625 -23.414062 17.484375 -23.226562 17.640625 -23.0625 C 17.796875 -22.90625 17.976562 -22.828125 18.1875 -22.828125 C 18.40625 -22.828125 18.59375 -22.90625 18.75 -23.0625 C 18.90625 -23.226562 18.984375 -23.414062 18.984375 -23.625 C 18.984375 -23.832031 18.90625 -24.019531 18.75 -24.1875 C 18.59375 -24.363281 18.40625 -24.453125 18.1875 -24.453125 Z M 18.1875 -24.453125 "/></g></g></g><g fill="#5271ff" fill-opacity="1"><g transform="translate(54.980102, 37.949044)"><g><path d="M 2.0625 -21.203125 C 2.0625 -22.128906 2.113281 -22.84375 2.21875 -23.34375 C 2.320312 -23.84375 2.535156 -24.320312 2.859375 -24.78125 C 3.222656 -25.351562 3.722656 -25.804688 4.359375 -26.140625 C 4.992188 -26.472656 5.679688 -26.640625 6.421875 -26.640625 C 7.191406 -26.640625 7.910156 -26.445312 8.578125 -26.0625 C 9.253906 -25.675781 9.773438 -25.15625 10.140625 -24.5 C 10.378906 -24.070312 10.546875 -23.625 10.640625 -23.15625 C 10.734375 -22.695312 10.78125 -22.046875 10.78125 -21.203125 L 10.78125 -5.234375 C 10.78125 -4.304688 10.71875 -3.59375 10.59375 -3.09375 C 10.476562 -2.59375 10.273438 -2.117188 9.984375 -1.671875 C 9.585938 -1.054688 9.070312 -0.585938 8.4375 -0.265625 C 7.800781 0.046875 7.128906 0.203125 6.421875 0.203125 C 5.628906 0.203125 4.894531 0.0195312 4.21875 -0.34375 C 3.539062 -0.71875 3.019531 -1.238281 2.65625 -1.90625 C 2.414062 -2.351562 2.253906 -2.804688 2.171875 -3.265625 C 2.097656 -3.734375 2.0625 -4.390625 2.0625 -5.234375 Z M 4.875 -22.90625 C 5.082031 -22.90625 5.265625 -22.984375 5.421875 -23.140625 C 5.585938 -23.304688 5.671875 -23.492188 5.671875 -23.703125 C 5.671875 -23.910156 5.585938 -24.09375 5.421875 -24.25 C 5.265625 -24.414062 5.082031 -24.5 4.875 -24.5 C 4.664062 -24.5 4.476562 -24.414062 4.3125 -24.25 C 4.15625 -24.09375 4.078125 -23.910156 4.078125 -23.703125 C 4.078125 -23.492188 4.15625 -23.304688 4.3125 -23.140625 C 4.476562 -22.984375 4.664062 -22.90625 4.875 -22.90625 Z M 6.21875 -2.703125 C 5.695312 -2.804688 5.347656 -3.03125 5.171875 -3.375 C 5.003906 -3.71875 4.921875 -4.390625 4.921875 -5.390625 L 4.921875 -21.203125 C 4.921875 -21.703125 4.878906 -22.03125 4.796875 -22.1875 C 4.710938 -22.351562 4.523438 -22.4375 4.234375 -22.4375 C 3.953125 -22.4375 3.769531 -22.351562 3.6875 -22.1875 C 3.601562 -22.03125 3.5625 -21.703125 3.5625 -21.203125 L 3.5625 -5.15625 C 3.5625 -4.382812 3.585938 -3.8125 3.640625 -3.4375 C 3.691406 -3.070312 3.8125 -2.742188 4 -2.453125 C 4.238281 -2.085938 4.550781 -1.804688 4.9375 -1.609375 C 5.320312 -1.410156 5.722656 -1.3125 6.140625 -1.3125 C 6.753906 -1.3125 7.0625 -1.5625 7.0625 -2.0625 C 7.0625 -2.40625 6.898438 -2.601562 6.578125 -2.65625 Z M 6.21875 -2.703125 "/></g></g></g><g clip-path="url(#6ed03d318a)"><path fill="#ffffff" d="M 73.363281 12.515625 L 69.042969 12.515625 L 77.753906 25.050781 L 69.007812 37.648438 L 73.332031 37.648438 L 79.898438 28.234375 L 86.402344 37.648438 L 90.757812 37.648438 Z M 110.824219 21.765625 C 110.824219 26.859375 106.867188 30.980469 101.976562 31.015625 L 98.816406 31.015625 L 98.816406 37.648438 L 95.0625 37.648438 L 95.0625 27.933594 L 101.910156 27.933594 C 104.789062 27.933594 107.101562 25.152344 107.101562 21.765625 C 107.101562 18.378906 104.789062 15.597656 101.910156 15.597656 L 88.359375 15.597656 L 84.136719 21.777344 L 82.039062 18.78125 L 86.402344 12.515625 L 101.972656 12.515625 C 106.867188 12.550781 110.824219 16.671875 110.824219 21.765625 Z M 110.824219 21.765625 " fill-opacity="1" fill-rule="nonzero"/></g><path fill="#ffffff" d="M 11.988281 27.941406 L 10.867188 27.941406 C 10.347656 27.941406 9.914062 27.503906 9.914062 26.984375 L 9.914062 24.992188 C 9.914062 24.472656 10.347656 24.035156 10.867188 24.035156 L 11.988281 24.035156 C 12.507812 24.035156 12.945312 24.472656 12.945312 24.992188 L 12.945312 26.984375 C 12.945312 27.503906 12.535156 27.941406 11.988281 27.941406 Z M 11.988281 27.941406 " fill-opacity="1" fill-rule="nonzero"/><path fill="#ffffff" d="M 16.769531 27.941406 L 15.648438 27.941406 C 15.128906 27.941406 14.691406 27.503906 14.691406 26.984375 L 14.691406 24.992188 C 14.691406 24.472656 15.128906 24.035156 15.648438 24.035156 L 16.769531 24.035156 C 17.285156 24.035156 17.722656 24.472656 17.722656 24.992188 L 17.722656 26.984375 C 17.722656 27.503906 17.285156 27.941406 16.769531 27.941406 Z M 16.769531 27.941406 " fill-opacity="1" fill-rule="nonzero"/><g clip-path="url(#28eceaa81d)"><path fill="#ffffff" d="M 14.144531 12.046875 C 6.988281 12.046875 1.171875 17.863281 1.171875 25.019531 C 1.171875 32.175781 6.988281 37.992188 14.144531 37.992188 L 25.070312 37.992188 C 26.21875 37.992188 27.121094 37.0625 27.121094 35.945312 L 27.121094 25.019531 C 27.121094 17.863281 21.300781 12.046875 14.144531 12.046875 Z M 23.242188 26.847656 C 23.242188 27.695312 22.558594 28.351562 21.738281 28.351562 L 21.054688 28.351562 C 21 28.351562 20.917969 28.351562 20.863281 28.324219 C 19.773438 30.644531 17.175781 32.257812 14.144531 32.257812 C 11.113281 32.257812 8.519531 30.644531 7.453125 28.351562 L 6.769531 28.351562 C 5.925781 28.351562 5.269531 27.667969 5.269531 26.847656 L 5.269531 25.128906 C 5.269531 24.28125 5.953125 23.625 6.769531 23.625 L 7.425781 23.625 C 8.355469 21.660156 10.429688 20.183594 12.945312 19.828125 L 12.945312 18.191406 C 12.425781 17.890625 12.070312 17.34375 12.070312 16.6875 C 12.070312 15.734375 12.835938 14.96875 13.789062 14.96875 C 14.746094 14.96875 15.511719 15.734375 15.511719 16.6875 C 15.511719 17.316406 15.15625 17.890625 14.636719 18.191406 L 14.636719 19.746094 C 17.449219 19.9375 19.800781 21.46875 20.808594 23.625 C 20.863281 23.625 20.945312 23.597656 21 23.597656 L 21.683594 23.597656 C 22.53125 23.597656 23.1875 24.28125 23.1875 25.101562 L 23.1875 26.847656 Z M 23.242188 26.847656 " fill-opacity="1" fill-rule="nonzero"/></g></svg>